<?xml version="1.0" encoding="utf-8"?>
<!-- Generator: Adobe Illustrator 25.3.1, SVG Export Plug-In . SVG Version: 6.00 Build 0)  -->
<svg version="1.1" id="Layer_2_1_" xmlns="http://www.w3.org/2000/svg" xmlns:xlink="http://www.w3.org/1999/xlink" x="0px" y="0px"
	 viewBox="0 0 469.3 341.3" style="enable-background:new 0 0 469.3 341.3;" xml:space="preserve">
<path d="M448,149.6H72.8L185.7,36.7c8.5-8.2,8.7-21.7,0.5-30.2C178.1-2,164.6-2.2,156.1,6c-0.2,0.2-0.4,0.3-0.5,0.5L6.2,155.8
	c-8.3,8.3-8.3,21.8,0,30.2l149.3,149.3c8.5,8.2,22,8,30.2-0.5c8-8.3,8-21.4,0-29.6L72.8,192.3H448c11.8,0,21.3-9.6,21.3-21.3
	C469.3,159.1,459.8,149.6,448,149.6L448,149.6z"/>
</svg>
