<?xml version="1.0" encoding="utf-8"?>
<!-- Generator: Adobe Illustrator 25.3.1, SVG Export Plug-In . SVG Version: 6.00 Build 0)  -->
<svg version="1.1" id="Layer_1" xmlns="http://www.w3.org/2000/svg" xmlns:xlink="http://www.w3.org/1999/xlink" x="0px" y="0px"
	 viewBox="0 0 510.9 511" style="enable-background:new 0 0 510.9 511;" xml:space="preserve">
<path d="M497.2,222.3C497.2,222.2,497.2,222.2,497.2,222.3L288.7,13.8C279.9,4.9,268,0,255.5,0s-24.4,4.9-33.3,13.8L13.9,222.1
	c-0.1,0.1-0.1,0.1-0.2,0.2c-18.2,18.4-18.2,48.1,0.1,66.4c8.4,8.4,19.4,13.2,31.2,13.7c0.5,0,1,0.1,1.5,0.1h8.3v153.4
	c0,30.4,24.7,55.1,55.1,55.1h81.6c8.3,0,15-6.7,15-15V375.8c0-13.9,11.3-25.1,25.1-25.1h48.1c13.9,0,25.1,11.3,25.1,25.1V496
	c0,8.3,6.7,15,15,15h81.6c30.4,0,55.1-24.7,55.1-55.1V302.5h7.7c12.6,0,24.4-4.9,33.3-13.8C515.5,270.4,515.5,240.6,497.2,222.3z
	 M476,267.6c-3.2,3.2-7.5,5-12.1,5h-22.7c-8.3,0-15,6.7-15,15v168.4c0,13.8-11.3,25.1-25.1,25.1h-66.6V375.8
	c0-30.4-24.7-55.1-55.1-55.1h-48.1c-30.4,0-55.1,24.7-55.1,55.1v105.3h-66.6c-13.8,0-25.1-11.3-25.1-25.1V287.6c0-8.3-6.7-15-15-15
	H47.4c-0.2,0-0.5,0-0.7,0c-4.5-0.1-8.6-1.8-11.8-5c-6.7-6.7-6.7-17.5,0-24.2c0,0,0,0,0,0l0,0L243.4,35c3.2-3.2,7.5-5,12.1-5
	c4.6,0,8.9,1.8,12.1,5L476,243.3c0,0,0.1,0.1,0.1,0.1C482.7,250.1,482.7,260.9,476,267.6z"/>
</svg>
