<?xml version="1.0" encoding="utf-8"?>
<!-- Generator: Adobe Illustrator 25.3.1, SVG Export Plug-In . SVG Version: 6.00 Build 0)  -->
<svg version="1.1" id="Layer_1" xmlns="http://www.w3.org/2000/svg" xmlns:xlink="http://www.w3.org/1999/xlink" x="0px" y="0px"
	 viewBox="0 0 445.6 512" style="enable-background:new 0 0 445.6 512;" xml:space="preserve">
<path d="M361.8,344.4c-24.5,0-46.6,10.6-62,27.4l-138-85.5c3.7-9.4,5.7-19.7,5.7-30.4c0-10.7-2-21-5.7-30.4l138-85.5
	c15.3,16.9,37.4,27.4,62,27.4c46.2,0,83.8-37.6,83.8-83.8S408,0,361.8,0S278,37.6,278,83.8c0,10.7,2,21,5.7,30.4l-138,85.5
	c-15.3-16.9-37.4-27.4-62-27.4C37.6,172.2,0,209.8,0,256c0,46.2,37.6,83.8,83.8,83.8c24.5,0,46.6-10.6,62-27.4l138,85.5
	c-3.7,9.4-5.7,19.7-5.7,30.4c0,46.2,37.6,83.8,83.8,83.8s83.8-37.6,83.8-83.8C445.6,382,408,344.4,361.8,344.4z M308.6,83.8
	c0-29.4,23.9-53.2,53.2-53.2s53.2,23.9,53.2,53.2s-23.9,53.2-53.2,53.2S308.6,113.2,308.6,83.8z M83.8,309.2
	c-29.4,0-53.2-23.9-53.2-53.2s23.9-53.2,53.2-53.2c29.4,0,53.2,23.9,53.2,53.2S113.2,309.2,83.8,309.2z M308.6,428.2
	c0-29.4,23.9-53.2,53.2-53.2s53.2,23.9,53.2,53.2s-23.9,53.2-53.2,53.2S308.6,457.6,308.6,428.2z"/>
</svg>
